<svg width="30" height="30" viewBox="0 0 30 30" fill="none" xmlns="http://www.w3.org/2000/svg">
<rect width="30" height="30" fill="#CCCCCC"/>
<g id="00-Anita Papas-Homepage-01 Opt 3" clip-path="url(#clip0_442_50)">
<rect width="1600" height="5892" transform="translate(-475 -1281)" fill="white"/>
<g id="Frame 26">
<g id="Read more idl">
<g id="Group 2">
<circle id="Oval" cx="15" cy="15" r="14.5" fill="#303030" fill-opacity="0.01" stroke="#303030"/>
<path id="Path" d="M21.0514 14.7474V14.6879C21.0505 14.6764 21.0454 14.6657 21.037 14.6581C21.037 14.6432 21.0226 14.6432 21.0226 14.6283C21.0226 14.6134 21.0082 14.6134 21.0082 14.5985C21.0002 14.5985 20.9937 14.5919 20.9937 14.5837L17.7165 11.0864C17.5993 10.9712 17.4149 10.9712 17.2978 11.0864C17.2412 11.14 17.209 11.2156 17.209 11.2948C17.209 11.3741 17.2412 11.4496 17.2978 11.5032L20.0554 14.4498H9.28872C9.1292 14.4498 9 14.583 9 14.7474C9 14.9119 9.12921 15.045 9.28872 15.045H20.1131L17.2978 17.9916C17.1917 18.1114 17.1981 18.2967 17.3122 18.4084C17.3642 18.4668 17.4375 18.5 17.5143 18.5C17.5912 18.5 17.6645 18.4668 17.7165 18.4084L20.9793 14.9856C20.9793 14.9708 20.9793 14.9708 20.9937 14.9558C20.9976 14.9558 21.0014 14.9543 21.004 14.9515C21.0067 14.9487 21.0082 14.9449 21.0082 14.941C21.0082 14.9261 21.0226 14.9261 21.0226 14.9112H21.037V14.8814C21.0455 14.8738 21.0506 14.8631 21.0515 14.8517L21.0514 14.7474Z" fill="#303030"/>
</g>
</g>
</g>
</g>
<defs>
<clipPath id="clip0_442_50">
<rect width="1600" height="5892" fill="white" transform="translate(-475 -1281)"/>
</clipPath>
</defs>
</svg>
