<svg width="20" height="20" viewBox="0 0 20 20" fill="none" xmlns="http://www.w3.org/2000/svg">
<path id="Close" d="M0.428027 19.5715C0.713825 19.8573 0.999409 20 1.42814 20C1.85663 20 2.14243 19.8571 2.42825 19.5715L9.99975 12L17.5712 19.5715C17.857 19.8573 18.2855 20 18.5714 20C18.8572 20 19.2856 19.8571 19.5715 19.5715C20.1428 19.0001 20.1428 18.1429 19.5715 17.5715L12 10L19.5715 2.42851C20.1428 1.85713 20.1428 0.999922 19.5715 0.428538C19.0001 -0.142846 18.1429 -0.142846 17.5715 0.428538L10 8.00005L2.4285 0.428538C1.85712 -0.142846 0.99992 -0.142846 0.428537 0.428538C-0.142846 0.999922 -0.142846 1.85713 0.428537 2.42851L8.00003 10L0.428537 17.5715C-0.142846 18.1431 -0.142846 19.0001 0.428537 19.5717L0.428027 19.5715Z" fill="#303030"/>
</svg>
