<svg width="220" height="38" viewBox="0 0 220 38" fill="none" xmlns="http://www.w3.org/2000/svg">
<g clip-path="url(#clip0_3556_153)">
<path d="M196.481 15.5982H198.173C198.19 15.8802 198.256 16.2285 198.372 16.6433C198.488 17.0414 198.712 17.4312 199.044 17.8128C199.376 18.1943 199.857 18.5261 200.487 18.8081C201.118 19.0735 201.955 19.2062 203 19.2062C204.311 19.2062 205.356 18.9574 206.136 18.4597C206.932 17.9621 207.33 17.1741 207.33 16.0958C207.33 15.2332 207.081 14.5448 206.584 14.0305C206.086 13.5163 205.456 13.085 204.692 12.7366C203.946 12.3716 203.133 12.0482 202.254 11.7661C201.375 11.4841 200.554 11.1441 199.79 10.7459C199.044 10.3478 198.422 9.85014 197.924 9.25294C197.427 8.65574 197.178 7.86778 197.178 6.88904C197.178 6.14254 197.327 5.47899 197.626 4.89838C197.941 4.31777 198.355 3.8367 198.87 3.45515C199.401 3.07361 200.006 2.78331 200.686 2.58424C201.383 2.38518 202.113 2.28564 202.876 2.28564C203.606 2.28564 204.303 2.37688 204.966 2.55936C205.646 2.72525 206.252 2.98237 206.783 3.33074C207.313 3.66251 207.753 4.07723 208.101 4.5749C208.45 5.05597 208.674 5.6034 208.773 6.21719H207.081C206.948 5.23845 206.501 4.52513 205.738 4.07723C204.991 3.61275 204.079 3.3805 203 3.3805C202.353 3.3805 201.781 3.46345 201.283 3.62934C200.786 3.77864 200.363 3.986 200.014 4.25142C199.683 4.50025 199.425 4.79885 199.243 5.14721C199.077 5.49558 198.994 5.86882 198.994 6.26696C198.994 6.98028 199.251 7.55259 199.766 7.9839C200.28 8.41521 200.918 8.79675 201.682 9.12852C202.461 9.4603 203.299 9.77549 204.195 10.0741C205.107 10.3727 205.945 10.7459 206.708 11.1938C207.488 11.6251 208.135 12.1726 208.649 12.8361C209.163 13.4831 209.42 14.3208 209.42 15.3493C209.42 16.0958 209.271 16.776 208.972 17.3897C208.674 18.0035 208.251 18.5261 207.703 18.9574C207.156 19.3887 206.492 19.7205 205.713 19.9527C204.95 20.185 204.087 20.3011 203.125 20.3011C202.179 20.3011 201.308 20.1933 200.512 19.9776C199.716 19.7454 199.019 19.4302 198.422 19.032C197.841 18.6173 197.377 18.1197 197.028 17.539C196.697 16.9584 196.514 16.3115 196.481 15.5982Z" fill="black"/>
<path d="M187.236 14.8765H178.651L176.462 20.0025H175.317L182.682 2.58423H183.926L192.038 20.0025H189.625L187.236 14.8765ZM186.713 13.7568L182.807 5.37115H182.707L179.124 13.7568H186.713Z" fill="black"/>
<path d="M161.795 12.7366V20.0025H159.531V2.58423H165.353C166.316 2.58423 167.153 2.72523 167.867 3.00724C168.58 3.28925 169.169 3.6708 169.633 4.15187C170.114 4.61636 170.471 5.17208 170.703 5.81904C170.936 6.44942 171.052 7.11297 171.052 7.8097C171.052 8.53961 170.919 9.22804 170.654 9.87501C170.388 10.5054 169.99 11.0694 169.459 11.5671C168.945 12.0481 168.298 12.4297 167.518 12.7117C166.739 12.9937 165.843 13.1347 164.831 13.1347C164.234 13.1347 163.686 13.1015 163.189 13.0352C162.691 12.9522 162.226 12.8527 161.795 12.7366ZM161.795 3.67909V11.7164C162.143 11.8491 162.533 11.9403 162.965 11.9901C163.396 12.0233 163.869 12.0398 164.383 12.0398C165.129 12.0398 165.768 11.9154 166.299 11.6666C166.83 11.4178 167.269 11.0943 167.618 10.6962C167.966 10.298 168.215 9.85842 168.364 9.37734C168.53 8.87968 168.613 8.39031 168.613 7.90923C168.613 7.41157 168.522 6.91391 168.339 6.41624C168.174 5.90199 167.916 5.4458 167.568 5.04767C167.22 4.63295 166.78 4.30117 166.249 4.05234C165.718 3.80351 165.105 3.67909 164.408 3.67909H161.795Z" fill="black"/>
<path d="M148.221 14.8765H139.637L137.447 20.0025H136.302L143.668 2.58423H144.912L153.024 20.0025H150.61L148.221 14.8765ZM147.699 13.7568L143.792 5.37115H143.693L140.109 13.7568H147.699Z" fill="black"/>
<path d="M122.78 12.7366V20.0025H120.516V2.58423H126.339C127.301 2.58423 128.139 2.72523 128.852 3.00724C129.565 3.28925 130.154 3.6708 130.619 4.15187C131.1 4.61636 131.456 5.17208 131.689 5.81904C131.921 6.44942 132.037 7.11297 132.037 7.8097C132.037 8.53961 131.904 9.22804 131.639 9.87501C131.373 10.5054 130.975 11.0694 130.445 11.5671C129.93 12.0481 129.283 12.4297 128.504 12.7117C127.724 12.9937 126.828 13.1347 125.816 13.1347C125.219 13.1347 124.672 13.1015 124.174 13.0352C123.676 12.9522 123.212 12.8527 122.78 12.7366ZM122.78 3.67909V11.7164C123.129 11.8491 123.519 11.9403 123.95 11.9901C124.381 12.0233 124.854 12.0398 125.368 12.0398C126.115 12.0398 126.753 11.9154 127.284 11.6666C127.815 11.4178 128.255 11.0943 128.603 10.6962C128.952 10.298 129.2 9.85842 129.35 9.37734C129.516 8.87968 129.598 8.39031 129.598 7.90923C129.598 7.41157 129.507 6.91391 129.325 6.41624C129.159 5.90199 128.902 5.4458 128.553 5.04767C128.205 4.63295 127.765 4.30117 127.235 4.05234C126.704 3.80351 126.09 3.67909 125.393 3.67909H122.78Z" fill="black"/>
<path d="M97.7418 14.8765H89.1571L86.9674 20.0025H85.8228L93.1882 2.58423H94.4323L102.544 20.0025H100.131L97.7418 14.8765ZM97.2193 13.7568L93.3126 5.37115H93.2131L89.6299 13.7568H97.2193Z" fill="black"/>
<path d="M78.1342 20.0025H75.8699V3.9528H69.2012V2.58423H84.8029V3.9528H78.1342V20.0025Z" fill="black"/>
<path d="M59.6899 2.58423H61.9543V20.0025H59.6899V2.58423Z" fill="black"/>
<path d="M48.8227 2.58424H49.9673V20.3011H49.8429L36.0327 6.68997H35.9332V20.0025H34.7886V2.28564H34.913L48.7232 15.8968H48.8227V2.58424Z" fill="black"/>
<path d="M23.4781 14.8765H14.8934L12.7037 20.0025H11.5591L18.9245 2.58423H20.1687L28.2806 20.0025H25.8669L23.4781 14.8765ZM22.9556 13.7568L19.0489 5.37115H18.9494L15.3662 13.7568H22.9556Z" fill="black"/>
<path d="M214.981 30.0942H216.864C217.234 30.0942 217.541 30.1468 217.784 30.2518C218.028 30.3514 218.219 30.4785 218.357 30.6334C218.501 30.7827 218.6 30.9458 218.655 31.1227C218.716 31.2997 218.747 31.4628 218.747 31.6121C218.747 31.778 218.719 31.9494 218.664 32.1264C218.608 32.2978 218.52 32.4581 218.398 32.6074C218.277 32.7567 218.119 32.8812 217.925 32.9807C217.737 33.0802 217.511 33.1383 217.245 33.1549V33.188L217.328 33.2295C217.395 33.2627 217.45 33.3042 217.494 33.3539C217.544 33.4037 217.605 33.4839 217.677 33.5945C217.754 33.7051 217.856 33.8627 217.984 34.0673C218.111 34.2663 218.29 34.5345 218.523 34.8718C218.6 34.9879 218.675 35.093 218.747 35.187C218.818 35.2755 218.893 35.3529 218.971 35.4192C219.048 35.4801 219.131 35.5271 219.219 35.5602C219.308 35.5934 219.41 35.61 219.526 35.61C219.554 35.61 219.582 35.61 219.609 35.61C219.637 35.6045 219.665 35.599 219.692 35.5934V35.9003C219.615 35.9446 219.537 35.9722 219.46 35.9833C219.383 35.9943 219.283 35.9999 219.161 35.9999C218.995 35.9999 218.852 35.9777 218.73 35.9335C218.614 35.8893 218.509 35.8312 218.415 35.7593C218.321 35.6819 218.232 35.5907 218.149 35.4856C218.072 35.3805 217.992 35.2644 217.909 35.1372L217.254 34.1668C217.154 34.012 217.068 33.882 216.996 33.777C216.925 33.6719 216.847 33.5862 216.764 33.5198C216.681 33.4535 216.587 33.4065 216.482 33.3788C216.383 33.3512 216.256 33.3373 216.101 33.3373H215.736V35.9003H214.981V30.0942ZM215.736 30.4592V32.9641H216.59C216.811 32.9641 217.005 32.9254 217.171 32.848C217.342 32.7706 217.486 32.671 217.602 32.5494C217.718 32.4222 217.804 32.284 217.859 32.1347C217.92 31.9798 217.95 31.8278 217.95 31.6785C217.95 31.5015 217.917 31.3384 217.851 31.1891C217.79 31.0398 217.699 30.9126 217.577 30.8076C217.455 30.697 217.309 30.6113 217.137 30.5504C216.972 30.4896 216.784 30.4592 216.573 30.4592H215.736Z" fill="black"/>
<path d="M205.565 32.9972C205.565 32.682 205.623 32.3475 205.74 31.9936C205.861 31.6397 206.049 31.3162 206.304 31.0231C206.558 30.7245 206.881 30.4785 207.274 30.2849C207.667 30.0914 208.137 29.9946 208.684 29.9946C209.237 29.9946 209.715 30.0942 210.119 30.2932C210.528 30.4868 210.866 30.7328 211.131 31.0314C211.396 31.33 211.593 31.6563 211.72 32.0102C211.847 32.3585 211.911 32.6875 211.911 32.9972C211.911 33.2018 211.88 33.4175 211.819 33.6442C211.764 33.8709 211.678 34.0976 211.562 34.3243C211.452 34.5455 211.308 34.7584 211.131 34.963C210.954 35.162 210.744 35.339 210.501 35.4938C210.263 35.6486 209.992 35.7731 209.688 35.8671C209.389 35.9555 209.055 35.9998 208.684 35.9998C208.137 35.9998 207.667 35.903 207.274 35.7095C206.881 35.5104 206.558 35.2616 206.304 34.963C206.049 34.6644 205.861 34.3409 205.74 33.9925C205.623 33.6386 205.565 33.3069 205.565 32.9972ZM206.378 32.9972C206.378 33.3843 206.436 33.7409 206.552 34.0672C206.674 34.3879 206.837 34.6644 207.042 34.8966C207.252 35.1289 207.498 35.3113 207.78 35.4441C208.062 35.5712 208.369 35.6348 208.701 35.6348C209.027 35.6348 209.334 35.5712 209.621 35.4441C209.914 35.3113 210.169 35.1289 210.384 34.8966C210.606 34.6644 210.78 34.3879 210.907 34.0672C211.034 33.7409 211.098 33.3843 211.098 32.9972C211.098 32.6101 211.034 32.2562 210.907 31.9355C210.78 31.6093 210.606 31.33 210.384 31.0978C210.169 30.8655 209.914 30.6858 209.621 30.5586C209.334 30.4259 209.027 30.3596 208.701 30.3596C208.369 30.3596 208.062 30.4259 207.78 30.5586C207.498 30.6858 207.252 30.8655 207.042 31.0978C206.837 31.33 206.674 31.6093 206.552 31.9355C206.436 32.2562 206.378 32.6101 206.378 32.9972Z" fill="black"/>
<path d="M198.267 33.0139V35.9003H197.513V30.0942H198.267V32.6323H201.743V30.0942H202.498V35.9003H201.743V33.0139H198.267Z" fill="black"/>
<path d="M192.47 35.9003H191.715V30.5504H189.492V30.0942H194.693V30.5504H192.47V35.9003Z" fill="black"/>
<path d="M182.361 30.0942H183.116V33.8848C183.116 33.9954 183.119 34.106 183.124 34.2166C183.13 34.3271 183.149 34.4377 183.182 34.5483C183.216 34.6534 183.265 34.7612 183.332 34.8718C183.398 34.9824 183.495 35.093 183.622 35.2036C183.782 35.3474 183.951 35.4552 184.128 35.5271C184.311 35.599 184.518 35.6349 184.75 35.6349C185.021 35.6349 185.281 35.5962 185.53 35.5188C185.779 35.4414 186.003 35.2948 186.202 35.0792C186.312 34.9575 186.395 34.8359 186.45 34.7142C186.511 34.5926 186.556 34.4709 186.583 34.3493C186.611 34.2221 186.627 34.0977 186.633 33.976C186.638 33.8488 186.641 33.7244 186.641 33.6028V30.0942H187.006V33.8765C187.006 34.1696 186.959 34.446 186.865 34.7059C186.771 34.9603 186.63 35.1842 186.442 35.3778C186.26 35.5713 186.03 35.7234 185.754 35.834C185.483 35.9446 185.17 35.9999 184.816 35.9999C184.252 35.9999 183.807 35.9224 183.481 35.7676C183.155 35.6072 182.909 35.4109 182.743 35.1787C182.577 34.9409 182.472 34.6866 182.428 34.4156C182.383 34.1391 182.361 33.8875 182.361 33.6608V30.0942Z" fill="black"/>
<path d="M178.186 34.1917H175.324L174.594 35.9003H174.213L176.668 30.0942H177.083L179.787 35.9003H178.982L178.186 34.1917ZM178.012 33.8184L176.71 31.0232H176.676L175.482 33.8184H178.012Z" fill="black"/>
<path d="M167.247 33.3706V33.9927H165.199V33.3706H167.247Z" fill="black"/>
<path d="M156.095 35.9003H155.34V30.5504H153.117V30.0942H158.318V30.5504H156.095V35.9003Z" fill="black"/>
<path d="M146.415 34.4321H146.979C146.984 34.5261 147.006 34.6423 147.045 34.7805C147.084 34.9132 147.158 35.0432 147.269 35.1703C147.379 35.2975 147.54 35.4081 147.75 35.5021C147.96 35.5906 148.239 35.6348 148.588 35.6348C149.025 35.6348 149.373 35.5519 149.633 35.386C149.898 35.2201 150.031 34.9574 150.031 34.598C150.031 34.3105 149.948 34.081 149.782 33.9096C149.616 33.7382 149.406 33.5944 149.152 33.4783C148.903 33.3566 148.632 33.2488 148.339 33.1548C148.046 33.0608 147.772 32.9474 147.518 32.8147C147.269 32.682 147.062 32.5161 146.896 32.3171C146.73 32.118 146.647 31.8553 146.647 31.5291C146.647 31.2803 146.697 31.0591 146.796 30.8655C146.901 30.672 147.039 30.5116 147.211 30.3845C147.388 30.2573 147.59 30.1605 147.816 30.0942C148.049 30.0278 148.292 29.9946 148.546 29.9946C148.79 29.9946 149.022 30.025 149.243 30.0859C149.47 30.1412 149.671 30.2269 149.848 30.343C150.025 30.4536 150.172 30.5918 150.288 30.7577C150.404 30.9181 150.479 31.1005 150.512 31.3051H149.948C149.904 30.9789 149.754 30.7411 149.5 30.5918C149.251 30.437 148.947 30.3596 148.588 30.3596C148.372 30.3596 148.181 30.3872 148.015 30.4425C147.849 30.4923 147.708 30.5614 147.592 30.6499C147.482 30.7328 147.396 30.8324 147.335 30.9485C147.28 31.0646 147.252 31.189 147.252 31.3217C147.252 31.5595 147.338 31.7503 147.509 31.894C147.681 32.0378 147.894 32.165 148.148 32.2756C148.408 32.3862 148.687 32.4912 148.986 32.5908C149.29 32.6903 149.569 32.8147 149.824 32.964C150.083 33.1078 150.299 33.2903 150.471 33.5115C150.642 33.7271 150.728 34.0064 150.728 34.3492C150.728 34.598 150.678 34.8247 150.578 35.0293C150.479 35.2339 150.338 35.4081 150.155 35.5519C149.973 35.6956 149.752 35.8062 149.492 35.8837C149.237 35.9611 148.95 35.9998 148.629 35.9998C148.314 35.9998 148.024 35.9638 147.758 35.8919C147.493 35.8145 147.261 35.7095 147.062 35.5768C146.868 35.4385 146.713 35.2726 146.597 35.0791C146.486 34.8856 146.426 34.6699 146.415 34.4321Z" fill="black"/>
<path d="M142.366 30.0942H143.121V35.9003H142.366V30.0942Z" fill="black"/>
<path d="M138.879 33.3124V35.9002H138.166V35.5602C137.956 35.6708 137.69 35.7731 137.37 35.8671C137.049 35.9555 136.681 35.9998 136.267 35.9998C135.714 35.9998 135.238 35.9141 134.84 35.7426C134.442 35.5657 134.113 35.3335 133.853 35.0459C133.599 34.7529 133.408 34.4238 133.281 34.0589C133.159 33.6884 133.098 33.3069 133.098 32.9143C133.098 32.4553 133.178 32.0461 133.339 31.6867C133.499 31.3217 133.723 31.0148 134.011 30.766C134.298 30.5172 134.638 30.3264 135.031 30.1937C135.429 30.061 135.863 29.9946 136.333 29.9946C136.742 29.9946 137.096 30.0416 137.395 30.1356C137.699 30.2241 137.953 30.3347 138.158 30.4674C138.362 30.6001 138.523 30.7439 138.639 30.8987C138.76 31.048 138.846 31.1835 138.896 31.3051H138.299C138.266 31.189 138.191 31.0757 138.075 30.9651C137.964 30.849 137.82 30.7467 137.643 30.6582C137.467 30.5697 137.265 30.4978 137.038 30.4425C136.811 30.3872 136.568 30.3596 136.308 30.3596C135.915 30.3596 135.57 30.4232 135.271 30.5504C134.978 30.6775 134.729 30.8572 134.525 31.0895C134.32 31.3217 134.165 31.5982 134.06 31.9189C133.961 32.2396 133.911 32.5908 133.911 32.9723C133.911 33.3594 133.964 33.7161 134.069 34.0423C134.179 34.363 134.342 34.6423 134.558 34.88C134.774 35.1123 135.045 35.2948 135.371 35.4275C135.697 35.5602 136.079 35.6265 136.515 35.6265C136.847 35.6265 137.143 35.5878 137.403 35.5104C137.663 35.433 137.917 35.3141 138.166 35.1537V33.6525H137.237V33.3124H138.879Z" fill="black"/>
<path d="M124.18 32.9972C124.18 32.682 124.238 32.3475 124.354 31.9936C124.476 31.6397 124.664 31.3162 124.918 31.0231C125.172 30.7245 125.496 30.4785 125.888 30.2849C126.281 30.0914 126.751 29.9946 127.298 29.9946C127.851 29.9946 128.33 30.0942 128.733 30.2932C129.143 30.4868 129.48 30.7328 129.745 31.0314C130.011 31.33 130.207 31.6563 130.334 32.0102C130.461 32.3585 130.525 32.6875 130.525 32.9972C130.525 33.2018 130.494 33.4175 130.434 33.6442C130.378 33.8709 130.293 34.0976 130.177 34.3243C130.066 34.5455 129.922 34.7584 129.745 34.963C129.568 35.162 129.358 35.339 129.115 35.4938C128.877 35.6486 128.606 35.7731 128.302 35.8671C128.003 35.9555 127.669 35.9998 127.298 35.9998C126.751 35.9998 126.281 35.903 125.888 35.7095C125.496 35.5104 125.172 35.2616 124.918 34.963C124.664 34.6644 124.476 34.3409 124.354 33.9925C124.238 33.6386 124.18 33.3069 124.18 32.9972ZM124.993 32.9972C124.993 33.3843 125.051 33.7409 125.167 34.0672C125.288 34.3879 125.451 34.6644 125.656 34.8966C125.866 35.1289 126.112 35.3113 126.394 35.4441C126.676 35.5712 126.983 35.6348 127.315 35.6348C127.641 35.6348 127.948 35.5712 128.236 35.4441C128.529 35.3113 128.783 35.1289 128.999 34.8966C129.22 34.6644 129.394 34.3879 129.521 34.0672C129.648 33.7409 129.712 33.3843 129.712 32.9972C129.712 32.6101 129.648 32.2562 129.521 31.9355C129.394 31.6093 129.22 31.33 128.999 31.0978C128.783 30.8655 128.529 30.6858 128.236 30.5586C127.948 30.4259 127.641 30.3596 127.315 30.3596C126.983 30.3596 126.676 30.4259 126.394 30.5586C126.112 30.6858 125.866 30.8655 125.656 31.0978C125.451 31.33 125.288 31.6093 125.167 31.9355C125.051 32.2562 124.993 32.6101 124.993 32.9972Z" fill="black"/>
<path d="M118.112 35.9003V30.0942H118.867V35.4441H121.861V35.9003H118.112Z" fill="black"/>
<path d="M108.696 32.9972C108.696 32.682 108.754 32.3475 108.87 31.9936C108.992 31.6397 109.18 31.3162 109.434 31.0231C109.688 30.7245 110.012 30.4785 110.404 30.2849C110.797 30.0914 111.267 29.9946 111.814 29.9946C112.367 29.9946 112.846 30.0942 113.249 30.2932C113.659 30.4868 113.996 30.7328 114.261 31.0314C114.527 31.33 114.723 31.6563 114.85 32.0102C114.977 32.3585 115.041 32.6875 115.041 32.9972C115.041 33.2018 115.011 33.4175 114.95 33.6442C114.894 33.8709 114.809 34.0976 114.693 34.3243C114.582 34.5455 114.438 34.7584 114.261 34.963C114.084 35.162 113.874 35.339 113.631 35.4938C113.393 35.6486 113.122 35.7731 112.818 35.8671C112.52 35.9555 112.185 35.9998 111.814 35.9998C111.267 35.9998 110.797 35.903 110.404 35.7095C110.012 35.5104 109.688 35.2616 109.434 34.963C109.18 34.6644 108.992 34.3409 108.87 33.9925C108.754 33.6386 108.696 33.3069 108.696 32.9972ZM109.509 32.9972C109.509 33.3843 109.567 33.7409 109.683 34.0672C109.804 34.3879 109.968 34.6644 110.172 34.8966C110.382 35.1289 110.628 35.3113 110.91 35.4441C111.192 35.5712 111.499 35.6348 111.831 35.6348C112.157 35.6348 112.464 35.5712 112.752 35.4441C113.045 35.3113 113.299 35.1289 113.515 34.8966C113.736 34.6644 113.91 34.3879 114.037 34.0672C114.165 33.7409 114.228 33.3843 114.228 32.9972C114.228 32.6101 114.165 32.2562 114.037 31.9355C113.91 31.6093 113.736 31.33 113.515 31.0978C113.299 30.8655 113.045 30.6858 112.752 30.5586C112.464 30.4259 112.157 30.3596 111.831 30.3596C111.499 30.3596 111.192 30.4259 110.91 30.5586C110.628 30.6858 110.382 30.8655 110.172 31.0978C109.968 31.33 109.804 31.6093 109.683 31.9355C109.567 32.2562 109.509 32.6101 109.509 32.9972Z" fill="black"/>
<path d="M101.398 33.0139V35.9003H100.644V30.0942H101.398V32.6323H104.874V30.0942H105.628V35.9003H104.874V33.0139H101.398Z" fill="black"/>
<path d="M97.5764 34.8303L97.8252 35.0542C97.7533 35.1372 97.6482 35.2339 97.51 35.3445C97.3718 35.4551 97.1976 35.5602 96.9875 35.6597C96.7829 35.7537 96.5396 35.8339 96.2576 35.9002C95.9811 35.9666 95.6659 35.9998 95.312 35.9998C94.7535 35.9998 94.2724 35.9141 93.8688 35.7426C93.4651 35.5657 93.1333 35.3362 92.8734 35.0542C92.6135 34.7667 92.42 34.4404 92.2928 34.0755C92.1712 33.705 92.1104 33.3262 92.1104 32.9391C92.1104 32.4912 92.1878 32.0876 92.3426 31.7282C92.4974 31.3632 92.7158 31.0535 92.9979 30.7992C93.2799 30.5393 93.6172 30.3402 94.0098 30.202C94.4079 30.0637 94.8475 29.9946 95.3286 29.9946C95.6604 29.9946 95.9562 30.0278 96.2161 30.0942C96.476 30.1605 96.7027 30.2518 96.8962 30.3679C97.0898 30.484 97.2501 30.6222 97.3773 30.7826C97.51 30.943 97.6178 31.1171 97.7008 31.3051H97.087C97.0483 31.189 96.9792 31.0757 96.8796 30.9651C96.7856 30.849 96.6612 30.7467 96.5064 30.6582C96.3571 30.5697 96.1829 30.4978 95.9838 30.4425C95.7903 30.3872 95.5746 30.3596 95.3369 30.3596C94.9885 30.3596 94.665 30.4232 94.3664 30.5504C94.0734 30.6775 93.819 30.8545 93.6033 31.0812C93.3877 31.3079 93.219 31.5789 93.0974 31.894C92.9813 32.2037 92.9232 32.5465 92.9232 32.9226C92.9232 33.2764 92.9785 33.6165 93.0891 33.9428C93.2052 34.269 93.3739 34.5565 93.5951 34.8054C93.8162 35.0542 94.0927 35.2533 94.4245 35.4026C94.7563 35.5519 95.1378 35.6265 95.5691 35.6265C96.3433 35.6265 97.0123 35.3611 97.5764 34.8303Z" fill="black"/>
<path d="M84.9883 30.0942H85.8426L87.5347 33.1549H87.5678L89.3428 30.0942H89.7907L87.7503 33.6277V35.9003H86.9955V33.7023L84.9883 30.0942Z" fill="black"/>
<path d="M78.2031 34.4321H78.7671C78.7727 34.5261 78.7948 34.6423 78.8335 34.7805C78.8722 34.9132 78.9469 35.0432 79.0574 35.1703C79.168 35.2975 79.3284 35.4081 79.5385 35.5021C79.7486 35.5906 80.0279 35.6348 80.3763 35.6348C80.8131 35.6348 81.1615 35.5519 81.4214 35.386C81.6868 35.2201 81.8195 34.9574 81.8195 34.598C81.8195 34.3105 81.7365 34.081 81.5707 33.9096C81.4048 33.7382 81.1946 33.5944 80.9403 33.4783C80.6914 33.3566 80.4205 33.2488 80.1274 33.1548C79.8344 33.0608 79.5606 32.9474 79.3063 32.8147C79.0574 32.682 78.8501 32.5161 78.6842 32.3171C78.5183 32.118 78.4354 31.8553 78.4354 31.5291C78.4354 31.2803 78.4851 31.0591 78.5847 30.8655C78.6897 30.672 78.828 30.5116 78.9994 30.3845C79.1763 30.2573 79.3782 30.1605 79.6049 30.0942C79.8371 30.0278 80.0804 29.9946 80.3348 29.9946C80.5781 29.9946 80.8103 30.025 81.0315 30.0859C81.2582 30.1412 81.4601 30.2269 81.637 30.343C81.814 30.4536 81.9605 30.5918 82.0766 30.7577C82.1927 30.9181 82.2674 31.1005 82.3006 31.3051H81.7365C81.6923 30.9789 81.543 30.7411 81.2886 30.5918C81.0398 30.437 80.7357 30.3596 80.3763 30.3596C80.1606 30.3596 79.9698 30.3872 79.8039 30.4425C79.6381 30.4923 79.4971 30.5614 79.3809 30.6499C79.2703 30.7328 79.1846 30.8324 79.1238 30.9485C79.0685 31.0646 79.0409 31.189 79.0409 31.3217C79.0409 31.5595 79.1266 31.7503 79.298 31.894C79.4694 32.0378 79.6823 32.165 79.9367 32.2756C80.1965 32.3862 80.4758 32.4912 80.7744 32.5908C81.0785 32.6903 81.3578 32.8147 81.6121 32.964C81.872 33.1078 82.0877 33.2903 82.2591 33.5115C82.4305 33.7271 82.5162 34.0064 82.5162 34.3492C82.5162 34.598 82.4664 34.8247 82.3669 35.0293C82.2674 35.2339 82.1264 35.4081 81.9439 35.5519C81.7614 35.6956 81.5402 35.8062 81.2803 35.8837C81.026 35.9611 80.7384 35.9998 80.4177 35.9998C80.1025 35.9998 79.8122 35.9638 79.5468 35.8919C79.2814 35.8145 79.0492 35.7095 78.8501 35.5768C78.6566 35.4385 78.5017 35.2726 78.3856 35.0791C78.275 34.8856 78.2142 34.6699 78.2031 34.4321Z" fill="black"/>
<path d="M72.9008 33.4784V35.9003H72.146V30.0942H74.0869C74.4076 30.0942 74.6868 30.1412 74.9246 30.2352C75.1624 30.3292 75.3587 30.4564 75.5135 30.6168C75.6739 30.7716 75.7928 30.9569 75.8702 31.1725C75.9476 31.3826 75.9863 31.6038 75.9863 31.8361C75.9863 32.0794 75.9421 32.3088 75.8536 32.5245C75.7651 32.7346 75.6324 32.9226 75.4555 33.0885C75.284 33.2489 75.0684 33.3761 74.8085 33.4701C74.5486 33.5641 74.25 33.6111 73.9127 33.6111C73.7136 33.6111 73.5312 33.6 73.3653 33.5779C73.1994 33.5502 73.0446 33.5171 72.9008 33.4784ZM72.9008 30.4592V33.1383C73.0169 33.1825 73.1469 33.2129 73.2906 33.2295C73.4344 33.2406 73.592 33.2461 73.7634 33.2461C74.0122 33.2461 74.2251 33.2046 74.4021 33.1217C74.579 33.0388 74.7256 32.9309 74.8417 32.7982C74.9578 32.6655 75.0407 32.519 75.0905 32.3586C75.1458 32.1927 75.1735 32.0296 75.1735 31.8692C75.1735 31.7034 75.143 31.5375 75.0822 31.3716C75.0269 31.2002 74.9412 31.0481 74.8251 30.9154C74.709 30.7771 74.5624 30.6666 74.3855 30.5836C74.2085 30.5007 74.0039 30.4592 73.7717 30.4592H72.9008Z" fill="black"/>
<path d="M60.939 35.9003V30.0942H61.6938V35.4441H64.688V35.9003H60.939Z" fill="black"/>
<path d="M56.432 34.1917H53.5704L52.8405 35.9003H52.459L54.9141 30.0942H55.3288L58.0328 35.9003H57.2283L56.432 34.1917ZM56.2578 33.8184L54.9556 31.0232H54.9224L53.728 33.8184H56.2578Z" fill="black"/>
<path d="M50.1379 34.8303L50.3867 35.0542C50.3148 35.1372 50.2098 35.2339 50.0715 35.3445C49.9333 35.4551 49.7591 35.5602 49.549 35.6597C49.3444 35.7537 49.1011 35.8339 48.8191 35.9002C48.5426 35.9666 48.2274 35.9998 47.8735 35.9998C47.315 35.9998 46.834 35.9141 46.4303 35.7426C46.0266 35.5657 45.6949 35.3362 45.435 35.0542C45.1751 34.7667 44.9815 34.4404 44.8544 34.0755C44.7327 33.705 44.6719 33.3262 44.6719 32.9391C44.6719 32.4912 44.7493 32.0876 44.9041 31.7282C45.0589 31.3632 45.2774 31.0535 45.5594 30.7992C45.8414 30.5393 46.1787 30.3402 46.5713 30.202C46.9694 30.0637 47.409 29.9946 47.8901 29.9946C48.2219 29.9946 48.5177 30.0278 48.7776 30.0942C49.0375 30.1605 49.2642 30.2518 49.4577 30.3679C49.6513 30.484 49.8116 30.6222 49.9388 30.7826C50.0715 30.943 50.1794 31.1171 50.2623 31.3051H49.6485C49.6098 31.189 49.5407 31.0757 49.4412 30.9651C49.3472 30.849 49.2227 30.7467 49.0679 30.6582C48.9186 30.5697 48.7444 30.4978 48.5454 30.4425C48.3518 30.3872 48.1362 30.3596 47.8984 30.3596C47.55 30.3596 47.2266 30.4232 46.928 30.5504C46.6349 30.6775 46.3805 30.8545 46.1649 31.0812C45.9492 31.3079 45.7806 31.5789 45.6589 31.894C45.5428 32.2037 45.4847 32.5465 45.4847 32.9226C45.4847 33.2764 45.54 33.6165 45.6506 33.9428C45.7667 34.269 45.9354 34.5565 46.1566 34.8054C46.3778 35.0542 46.6542 35.2533 46.986 35.4026C47.3178 35.5519 47.6993 35.6265 48.1306 35.6265C48.9048 35.6265 49.5739 35.3611 50.1379 34.8303Z" fill="black"/>
<path d="M40.5151 30.0942H41.2699V35.9003H40.5151V30.0942Z" fill="black"/>
<path d="M36.1556 30.0942H36.5371V35.9998H36.4957L31.8923 31.4627H31.8591V35.9002H31.4775V29.9946H31.519L36.1224 34.5317H36.1556V30.0942Z" fill="black"/>
<path d="M26.7402 30.0942H27.495V35.9003H26.7402V30.0942Z" fill="black"/>
<path d="M19.7603 35.9003V30.0942H20.515V35.4441H23.5093V35.9003H19.7603Z" fill="black"/>
<path d="M16.6931 34.8303L16.9419 35.0542C16.87 35.1372 16.7649 35.2339 16.6267 35.3445C16.4885 35.4551 16.3143 35.5602 16.1042 35.6597C15.8996 35.7537 15.6563 35.8339 15.3743 35.9002C15.0978 35.9666 14.7826 35.9998 14.4287 35.9998C13.8702 35.9998 13.3891 35.9141 12.9855 35.7426C12.5818 35.5657 12.25 35.3362 11.9901 35.0542C11.7302 34.7667 11.5367 34.4404 11.4095 34.0755C11.2879 33.705 11.2271 33.3262 11.2271 32.9391C11.2271 32.4912 11.3045 32.0876 11.4593 31.7282C11.6141 31.3632 11.8325 31.0535 12.1146 30.7992C12.3966 30.5393 12.7339 30.3402 13.1265 30.202C13.5246 30.0637 13.9642 29.9946 14.4453 29.9946C14.7771 29.9946 15.0729 30.0278 15.3328 30.0942C15.5927 30.1605 15.8194 30.2518 16.0129 30.3679C16.2065 30.484 16.3668 30.6222 16.494 30.7826C16.6267 30.943 16.7345 31.1171 16.8175 31.3051H16.2037C16.165 31.189 16.0959 31.0757 15.9963 30.9651C15.9023 30.849 15.7779 30.7467 15.6231 30.6582C15.4738 30.5697 15.2996 30.4978 15.1005 30.4425C14.907 30.3872 14.6913 30.3596 14.4536 30.3596C14.1052 30.3596 13.7817 30.4232 13.4831 30.5504C13.1901 30.6775 12.9357 30.8545 12.72 31.0812C12.5044 31.3079 12.3357 31.5789 12.2141 31.894C12.098 32.2037 12.0399 32.5465 12.0399 32.9226C12.0399 33.2764 12.0952 33.6165 12.2058 33.9428C12.3219 34.269 12.4906 34.5565 12.7117 34.8054C12.9329 35.0542 13.2094 35.2533 13.5412 35.4026C13.873 35.5519 14.2545 35.6265 14.6858 35.6265C15.46 35.6265 16.129 35.3611 16.6931 34.8303Z" fill="black"/>
</g>
<defs>
<clipPath id="clip0_3556_153">
<rect width="219" height="37.7141" fill="white" transform="translate(0.227051 0.285645)"/>
</clipPath>
</defs>
</svg>
