<svg width="303" height="59" viewBox="0 0 303 59" fill="none" xmlns="http://www.w3.org/2000/svg">
<path d="M268.617 26.6279H271.065C271.089 27.0359 271.185 27.5399 271.353 28.1399C271.521 28.7159 271.845 29.2799 272.325 29.8319C272.805 30.3839 273.501 30.8639 274.413 31.2719C275.325 31.6559 276.537 31.8479 278.049 31.8479C279.945 31.8479 281.457 31.4879 282.585 30.7679C283.737 30.0479 284.313 28.9079 284.313 27.3479C284.313 26.0999 283.953 25.1039 283.233 24.3599C282.513 23.6159 281.601 22.9919 280.497 22.4879C279.417 21.9599 278.241 21.4919 276.969 21.0839C275.697 20.6759 274.509 20.1839 273.405 19.6079C272.325 19.0319 271.425 18.3119 270.705 17.4479C269.985 16.5839 269.625 15.4439 269.625 14.0279C269.625 12.9479 269.841 11.9879 270.273 11.1479C270.729 10.3079 271.329 9.61192 272.073 9.05992C272.841 8.50792 273.717 8.08792 274.701 7.79992C275.709 7.51192 276.765 7.36792 277.869 7.36792C278.925 7.36792 279.933 7.49992 280.893 7.76392C281.877 8.00392 282.753 8.37592 283.521 8.87992C284.289 9.35992 284.925 9.95992 285.429 10.6799C285.933 11.3759 286.257 12.1679 286.401 13.0559H283.953C283.761 11.6399 283.113 10.6079 282.009 9.95992C280.929 9.28792 279.609 8.95192 278.049 8.95192C277.113 8.95192 276.285 9.07192 275.565 9.31192C274.845 9.52792 274.233 9.82792 273.729 10.2119C273.249 10.5719 272.877 11.0039 272.613 11.5079C272.373 12.0119 272.253 12.5519 272.253 13.1279C272.253 14.1599 272.625 14.9879 273.369 15.6119C274.113 16.2359 275.037 16.7879 276.141 17.2679C277.269 17.7479 278.481 18.2039 279.777 18.6359C281.097 19.0679 282.309 19.6079 283.413 20.2559C284.541 20.8799 285.477 21.6719 286.221 22.6319C286.965 23.5679 287.337 24.7799 287.337 26.2679C287.337 27.3479 287.121 28.3319 286.689 29.2199C286.257 30.1079 285.645 30.8639 284.853 31.4879C284.061 32.1119 283.101 32.5919 281.973 32.9279C280.869 33.2639 279.621 33.4319 278.229 33.4319C276.861 33.4319 275.601 33.2759 274.449 32.9639C273.297 32.6279 272.289 32.1719 271.425 31.5959C270.585 30.9959 269.913 30.2759 269.409 29.4359C268.929 28.5959 268.665 27.6599 268.617 26.6279Z" fill="white"/>
<path d="M255.242 25.5838H242.822L239.654 32.9998H237.998L248.654 7.7998H250.454L262.19 32.9998H258.698L255.242 25.5838ZM254.486 23.9638L248.834 11.8318H248.69L243.506 23.9638H254.486Z" fill="white"/>
<path d="M218.436 22.4878V32.9998H215.16V7.7998H223.584C224.976 7.7998 226.188 8.0038 227.22 8.41181C228.252 8.81981 229.104 9.37181 229.776 10.0678C230.472 10.7398 230.988 11.5438 231.324 12.4798C231.66 13.3918 231.828 14.3518 231.828 15.3598C231.828 16.4158 231.636 17.4118 231.252 18.3478C230.868 19.2598 230.292 20.0758 229.524 20.7958C228.78 21.4918 227.844 22.0438 226.716 22.4518C225.588 22.8598 224.292 23.0638 222.828 23.0638C221.964 23.0638 221.172 23.0158 220.452 22.9198C219.732 22.7998 219.06 22.6558 218.436 22.4878ZM218.436 9.38381V21.0118C218.94 21.2038 219.504 21.3358 220.128 21.4078C220.752 21.4558 221.436 21.4798 222.18 21.4798C223.26 21.4798 224.184 21.2998 224.952 20.9398C225.72 20.5798 226.356 20.1118 226.86 19.5358C227.364 18.9598 227.724 18.3238 227.94 17.6278C228.18 16.9078 228.3 16.1998 228.3 15.5038C228.3 14.7838 228.168 14.0638 227.904 13.3438C227.664 12.5998 227.292 11.9398 226.788 11.3638C226.284 10.7638 225.648 10.2838 224.88 9.92381C224.112 9.56381 223.224 9.38381 222.216 9.38381H218.436Z" fill="white"/>
<path d="M198.797 25.5838H186.377L183.209 32.9998H181.553L192.209 7.7998H194.009L205.745 32.9998H202.253L198.797 25.5838ZM198.041 23.9638L192.389 11.8318H192.245L187.061 23.9638H198.041Z" fill="white"/>
<path d="M161.991 22.4878V32.9998H158.715V7.7998H167.139C168.531 7.7998 169.743 8.0038 170.775 8.41181C171.807 8.81981 172.659 9.37181 173.331 10.0678C174.027 10.7398 174.543 11.5438 174.879 12.4798C175.215 13.3918 175.383 14.3518 175.383 15.3598C175.383 16.4158 175.191 17.4118 174.807 18.3478C174.423 19.2598 173.847 20.0758 173.079 20.7958C172.335 21.4918 171.399 22.0438 170.271 22.4518C169.143 22.8598 167.847 23.0638 166.383 23.0638C165.519 23.0638 164.727 23.0158 164.007 22.9198C163.287 22.7998 162.615 22.6558 161.991 22.4878ZM161.991 9.38381V21.0118C162.495 21.2038 163.059 21.3358 163.683 21.4078C164.307 21.4558 164.991 21.4798 165.735 21.4798C166.815 21.4798 167.739 21.2998 168.507 20.9398C169.275 20.5798 169.911 20.1118 170.415 19.5358C170.919 18.9598 171.279 18.3238 171.495 17.6278C171.735 16.9078 171.855 16.1998 171.855 15.5038C171.855 14.7838 171.723 14.0638 171.459 13.3438C171.219 12.5998 170.847 11.9398 170.343 11.3638C169.839 10.7638 169.203 10.2838 168.435 9.92381C167.667 9.56381 166.779 9.38381 165.771 9.38381H161.991Z" fill="white"/>
<path d="M125.765 25.5838H113.345L110.177 32.9998H108.521L119.177 7.7998H120.977L132.713 32.9998H129.221L125.765 25.5838ZM125.009 23.9638L119.357 11.8318H119.213L114.029 23.9638H125.009Z" fill="white"/>
<path d="M97.3981 32.9998H94.1221V9.77981H84.4741V7.7998H107.046V9.77981H97.3981V32.9998Z" fill="white"/>
<path d="M70.7134 7.7998H73.9894V32.9998H70.7134V7.7998Z" fill="white"/>
<path d="M54.9915 7.79992H56.6475V33.4319H56.4675L36.4875 13.7399H36.3435V32.9999H34.6875V7.36792H34.8675L54.8475 27.0599H54.9915V7.79992Z" fill="white"/>
<path d="M18.3241 25.5838H5.90408L2.73608 32.9998H1.08008L11.7361 7.7998H13.5361L25.2721 32.9998H21.7801L18.3241 25.5838ZM17.5681 23.9638L11.9161 11.8318H11.7721L6.58808 23.9638H17.5681Z" fill="white"/>
<path d="M295.384 47.6001H298.108C298.644 47.6001 299.088 47.6761 299.44 47.8281C299.792 47.9721 300.068 48.1561 300.268 48.3801C300.476 48.5961 300.62 48.8321 300.7 49.0881C300.788 49.3441 300.832 49.5801 300.832 49.7961C300.832 50.0361 300.792 50.2841 300.712 50.5401C300.632 50.7881 300.504 51.0201 300.328 51.2361C300.152 51.4521 299.924 51.6321 299.644 51.7761C299.372 51.9201 299.044 52.0041 298.66 52.0281V52.0761L298.78 52.1361C298.876 52.1841 298.956 52.2441 299.02 52.3161C299.092 52.3881 299.18 52.5041 299.284 52.6641C299.396 52.8241 299.544 53.0521 299.728 53.3481C299.912 53.6361 300.172 54.0241 300.508 54.5121C300.62 54.6801 300.728 54.8321 300.832 54.9681C300.936 55.0961 301.044 55.2081 301.156 55.3041C301.268 55.3921 301.388 55.4601 301.516 55.5081C301.644 55.5561 301.792 55.5801 301.96 55.5801C302 55.5801 302.04 55.5801 302.08 55.5801C302.12 55.5721 302.16 55.5641 302.2 55.5561V56.0001C302.088 56.0641 301.976 56.1041 301.864 56.1201C301.752 56.1361 301.608 56.1441 301.432 56.1441C301.192 56.1441 300.984 56.1121 300.808 56.0481C300.64 55.9841 300.488 55.9001 300.352 55.7961C300.216 55.6841 300.088 55.5521 299.968 55.4001C299.856 55.2481 299.74 55.0801 299.62 54.8961L298.672 53.4921C298.528 53.2681 298.404 53.0801 298.3 52.9281C298.196 52.7761 298.084 52.6521 297.964 52.5561C297.844 52.4601 297.708 52.3921 297.556 52.3521C297.412 52.3121 297.228 52.2921 297.004 52.2921H296.476V56.0001H295.384V47.6001ZM296.476 48.1281V51.7521H297.712C298.032 51.7521 298.312 51.6961 298.552 51.5841C298.8 51.4721 299.008 51.3281 299.176 51.1521C299.344 50.9681 299.468 50.7681 299.548 50.5521C299.636 50.3281 299.68 50.1081 299.68 49.8921C299.68 49.6361 299.632 49.4001 299.536 49.1841C299.448 48.9681 299.316 48.7841 299.14 48.6321C298.964 48.4721 298.752 48.3481 298.504 48.2601C298.264 48.1721 297.992 48.1281 297.688 48.1281H296.476Z" fill="white"/>
<path d="M281.761 51.8001C281.761 51.3441 281.845 50.8601 282.013 50.3481C282.189 49.8361 282.461 49.3681 282.829 48.9441C283.197 48.5121 283.665 48.1561 284.233 47.8761C284.801 47.5961 285.481 47.4561 286.273 47.4561C287.073 47.4561 287.765 47.6001 288.349 47.8881C288.941 48.1681 289.429 48.5241 289.813 48.9561C290.197 49.3881 290.481 49.8601 290.665 50.3721C290.849 50.8761 290.941 51.3521 290.941 51.8001C290.941 52.0961 290.897 52.4081 290.809 52.7361C290.729 53.0641 290.605 53.3921 290.437 53.7201C290.277 54.0401 290.069 54.3481 289.813 54.6441C289.557 54.9321 289.253 55.1881 288.901 55.4121C288.557 55.6361 288.165 55.8161 287.725 55.9521C287.293 56.0801 286.809 56.1441 286.273 56.1441C285.481 56.1441 284.801 56.0041 284.233 55.7241C283.665 55.4361 283.197 55.0761 282.829 54.6441C282.461 54.2121 282.189 53.7441 282.013 53.2401C281.845 52.7281 281.761 52.2481 281.761 51.8001ZM282.937 51.8001C282.937 52.3601 283.021 52.8761 283.189 53.3481C283.365 53.8121 283.601 54.2121 283.897 54.5481C284.201 54.8841 284.557 55.1481 284.965 55.3401C285.373 55.5241 285.817 55.6161 286.297 55.6161C286.769 55.6161 287.213 55.5241 287.629 55.3401C288.053 55.1481 288.421 54.8841 288.733 54.5481C289.053 54.2121 289.305 53.8121 289.489 53.3481C289.673 52.8761 289.765 52.3601 289.765 51.8001C289.765 51.2401 289.673 50.7281 289.489 50.2641C289.305 49.7921 289.053 49.3881 288.733 49.0521C288.421 48.7161 288.053 48.4561 287.629 48.2721C287.213 48.0801 286.769 47.9841 286.297 47.9841C285.817 47.9841 285.373 48.0801 284.965 48.2721C284.557 48.4561 284.201 48.7161 283.897 49.0521C283.601 49.3881 283.365 49.7921 283.189 50.2641C283.021 50.7281 282.937 51.2401 282.937 51.8001Z" fill="white"/>
<path d="M271.203 51.8241V56.0001H270.111V47.6001H271.203V51.2721H276.231V47.6001H277.323V56.0001H276.231V51.8241H271.203Z" fill="white"/>
<path d="M262.815 56.0001H261.723V48.2601H258.507V47.6001H266.031V48.2601H262.815V56.0001Z" fill="white"/>
<path d="M248.19 47.6001H249.282V53.0841C249.282 53.2441 249.286 53.4041 249.294 53.5641C249.302 53.7241 249.33 53.8841 249.378 54.0441C249.426 54.1961 249.498 54.3521 249.594 54.5121C249.69 54.6721 249.83 54.8321 250.014 54.9921C250.246 55.2001 250.49 55.3561 250.746 55.4601C251.01 55.5641 251.31 55.6161 251.646 55.6161C252.038 55.6161 252.414 55.5601 252.774 55.4481C253.134 55.3361 253.458 55.1241 253.746 54.8121C253.906 54.6361 254.026 54.4601 254.106 54.2841C254.194 54.1081 254.258 53.9321 254.298 53.7561C254.338 53.5721 254.362 53.3921 254.37 53.2161C254.378 53.0321 254.382 52.8521 254.382 52.6761V47.6001H254.91V53.0721C254.91 53.4961 254.842 53.8961 254.706 54.2721C254.57 54.6401 254.366 54.9641 254.094 55.2441C253.83 55.5241 253.498 55.7441 253.098 55.9041C252.706 56.0641 252.254 56.1441 251.742 56.1441C250.926 56.1441 250.282 56.0321 249.81 55.8081C249.338 55.5761 248.982 55.2921 248.742 54.9561C248.502 54.6121 248.35 54.2441 248.286 53.8521C248.222 53.4521 248.19 53.0881 248.19 52.7601V47.6001Z" fill="white"/>
<path d="M242.149 53.5281H238.009L236.953 56.0001H236.401L239.953 47.6001H240.553L244.465 56.0001H243.301L242.149 53.5281ZM241.897 52.9881L240.013 48.9441H239.965L238.237 52.9881H241.897Z" fill="white"/>
<path d="M226.324 52.3401V53.2401H223.36V52.3401H226.324Z" fill="white"/>
<path d="M210.189 56.0001H209.097V48.2601H205.881V47.6001H213.405V48.2601H210.189V56.0001Z" fill="white"/>
<path d="M196.185 53.8761H197.001C197.009 54.0121 197.041 54.1801 197.097 54.3801C197.153 54.5721 197.261 54.7601 197.421 54.9441C197.581 55.1281 197.813 55.2881 198.117 55.4241C198.421 55.5521 198.825 55.6161 199.329 55.6161C199.961 55.6161 200.465 55.4961 200.841 55.2561C201.225 55.0161 201.417 54.6361 201.417 54.1161C201.417 53.7001 201.297 53.3681 201.057 53.1201C200.817 52.8721 200.513 52.6641 200.145 52.4961C199.785 52.3201 199.393 52.1641 198.969 52.0281C198.545 51.8921 198.149 51.7281 197.781 51.5361C197.421 51.3441 197.121 51.1041 196.881 50.8161C196.641 50.5281 196.521 50.1481 196.521 49.6761C196.521 49.3161 196.593 48.9961 196.737 48.7161C196.889 48.4361 197.089 48.2041 197.337 48.0201C197.593 47.8361 197.885 47.6961 198.213 47.6001C198.549 47.5041 198.901 47.4561 199.269 47.4561C199.621 47.4561 199.957 47.5001 200.277 47.5881C200.605 47.6681 200.897 47.7921 201.153 47.9601C201.409 48.1201 201.621 48.3201 201.789 48.5601C201.957 48.7921 202.065 49.0561 202.113 49.3521H201.297C201.233 48.8801 201.017 48.5361 200.649 48.3201C200.289 48.0961 199.849 47.9841 199.329 47.9841C199.017 47.9841 198.741 48.0241 198.501 48.1041C198.261 48.1761 198.057 48.2761 197.889 48.4041C197.729 48.5241 197.605 48.6681 197.517 48.8361C197.437 49.0041 197.397 49.1841 197.397 49.3761C197.397 49.7201 197.521 49.9961 197.769 50.2041C198.017 50.4121 198.325 50.5961 198.693 50.7561C199.069 50.9161 199.473 51.0681 199.905 51.2121C200.345 51.3561 200.749 51.5361 201.117 51.7521C201.493 51.9601 201.805 52.2241 202.053 52.5441C202.301 52.8561 202.425 53.2601 202.425 53.7561C202.425 54.1161 202.353 54.4441 202.209 54.7401C202.065 55.0361 201.861 55.2881 201.597 55.4961C201.333 55.7041 201.013 55.8641 200.637 55.9761C200.269 56.0881 199.853 56.1441 199.389 56.1441C198.933 56.1441 198.513 56.0921 198.129 55.9881C197.745 55.8761 197.409 55.7241 197.121 55.5321C196.841 55.3321 196.617 55.0921 196.449 54.8121C196.289 54.5321 196.201 54.2201 196.185 53.8761Z" fill="white"/>
<path d="M190.327 47.6001H191.419V56.0001H190.327V47.6001Z" fill="white"/>
<path d="M185.282 52.2561V56.0001H184.25V55.5081C183.946 55.6681 183.562 55.8161 183.098 55.9521C182.634 56.0801 182.102 56.1441 181.502 56.1441C180.702 56.1441 180.014 56.0201 179.438 55.7721C178.862 55.5161 178.386 55.1801 178.01 54.7641C177.642 54.3401 177.366 53.8641 177.182 53.3361C177.006 52.8001 176.918 52.2481 176.918 51.6801C176.918 51.0161 177.034 50.4241 177.266 49.9041C177.498 49.3761 177.822 48.9321 178.238 48.5721C178.654 48.2121 179.146 47.9361 179.714 47.7441C180.29 47.5521 180.918 47.4561 181.598 47.4561C182.19 47.4561 182.702 47.5241 183.134 47.6601C183.574 47.7881 183.942 47.9481 184.238 48.1401C184.534 48.3321 184.766 48.5401 184.934 48.7641C185.11 48.9801 185.234 49.1761 185.306 49.3521H184.442C184.394 49.1841 184.286 49.0201 184.118 48.8601C183.958 48.6921 183.75 48.5441 183.494 48.4161C183.238 48.2881 182.946 48.1841 182.618 48.1041C182.29 48.0241 181.938 47.9841 181.562 47.9841C180.994 47.9841 180.494 48.0761 180.062 48.2601C179.638 48.4441 179.278 48.7041 178.982 49.0401C178.686 49.3761 178.462 49.7761 178.31 50.2401C178.166 50.7041 178.094 51.2121 178.094 51.7641C178.094 52.3241 178.17 52.8401 178.322 53.3121C178.482 53.7761 178.718 54.1801 179.03 54.5241C179.342 54.8601 179.734 55.1241 180.206 55.3161C180.678 55.5081 181.23 55.6041 181.862 55.6041C182.342 55.6041 182.77 55.5481 183.146 55.4361C183.522 55.3241 183.89 55.1521 184.25 54.9201V52.7481H182.906V52.2561H185.282Z" fill="white"/>
<path d="M164.016 51.8001C164.016 51.3441 164.1 50.8601 164.268 50.3481C164.444 49.8361 164.716 49.3681 165.084 48.9441C165.452 48.5121 165.92 48.1561 166.488 47.8761C167.056 47.5961 167.736 47.4561 168.528 47.4561C169.328 47.4561 170.02 47.6001 170.604 47.8881C171.196 48.1681 171.684 48.5241 172.068 48.9561C172.452 49.3881 172.736 49.8601 172.92 50.3721C173.104 50.8761 173.196 51.3521 173.196 51.8001C173.196 52.0961 173.152 52.4081 173.064 52.7361C172.984 53.0641 172.86 53.3921 172.692 53.7201C172.532 54.0401 172.324 54.3481 172.068 54.6441C171.812 54.9321 171.508 55.1881 171.156 55.4121C170.812 55.6361 170.42 55.8161 169.98 55.9521C169.548 56.0801 169.064 56.1441 168.528 56.1441C167.736 56.1441 167.056 56.0041 166.488 55.7241C165.92 55.4361 165.452 55.0761 165.084 54.6441C164.716 54.2121 164.444 53.7441 164.268 53.2401C164.1 52.7281 164.016 52.2481 164.016 51.8001ZM165.192 51.8001C165.192 52.3601 165.276 52.8761 165.444 53.3481C165.62 53.8121 165.856 54.2121 166.152 54.5481C166.456 54.8841 166.812 55.1481 167.22 55.3401C167.628 55.5241 168.072 55.6161 168.552 55.6161C169.024 55.6161 169.468 55.5241 169.884 55.3401C170.308 55.1481 170.676 54.8841 170.988 54.5481C171.308 54.2121 171.56 53.8121 171.744 53.3481C171.928 52.8761 172.02 52.3601 172.02 51.8001C172.02 51.2401 171.928 50.7281 171.744 50.2641C171.56 49.7921 171.308 49.3881 170.988 49.0521C170.676 48.7161 170.308 48.4561 169.884 48.2721C169.468 48.0801 169.024 47.9841 168.552 47.9841C168.072 47.9841 167.628 48.0801 167.22 48.2721C166.812 48.4561 166.456 48.7161 166.152 49.0521C165.856 49.3881 165.62 49.7921 165.444 50.2641C165.276 50.7281 165.192 51.2401 165.192 51.8001Z" fill="white"/>
<path d="M155.237 56.0001V47.6001H156.329V55.3401H160.661V56.0001H155.237Z" fill="white"/>
<path d="M141.614 51.8001C141.614 51.3441 141.698 50.8601 141.866 50.3481C142.042 49.8361 142.314 49.3681 142.682 48.9441C143.05 48.5121 143.518 48.1561 144.086 47.8761C144.654 47.5961 145.334 47.4561 146.126 47.4561C146.926 47.4561 147.618 47.6001 148.202 47.8881C148.794 48.1681 149.282 48.5241 149.666 48.9561C150.05 49.3881 150.334 49.8601 150.518 50.3721C150.702 50.8761 150.794 51.3521 150.794 51.8001C150.794 52.0961 150.75 52.4081 150.662 52.7361C150.582 53.0641 150.458 53.3921 150.29 53.7201C150.13 54.0401 149.922 54.3481 149.666 54.6441C149.41 54.9321 149.106 55.1881 148.754 55.4121C148.41 55.6361 148.018 55.8161 147.578 55.9521C147.146 56.0801 146.662 56.1441 146.126 56.1441C145.334 56.1441 144.654 56.0041 144.086 55.7241C143.518 55.4361 143.05 55.0761 142.682 54.6441C142.314 54.2121 142.042 53.7441 141.866 53.2401C141.698 52.7281 141.614 52.2481 141.614 51.8001ZM142.79 51.8001C142.79 52.3601 142.874 52.8761 143.042 53.3481C143.218 53.8121 143.454 54.2121 143.75 54.5481C144.054 54.8841 144.41 55.1481 144.818 55.3401C145.226 55.5241 145.67 55.6161 146.15 55.6161C146.622 55.6161 147.066 55.5241 147.482 55.3401C147.906 55.1481 148.274 54.8841 148.586 54.5481C148.906 54.2121 149.158 53.8121 149.342 53.3481C149.526 52.8761 149.618 52.3601 149.618 51.8001C149.618 51.2401 149.526 50.7281 149.342 50.2641C149.158 49.7921 148.906 49.3881 148.586 49.0521C148.274 48.7161 147.906 48.4561 147.482 48.2721C147.066 48.0801 146.622 47.9841 146.15 47.9841C145.67 47.9841 145.226 48.0801 144.818 48.2721C144.41 48.4561 144.054 48.7161 143.75 49.0521C143.454 49.3881 143.218 49.7921 143.042 50.2641C142.874 50.7281 142.79 51.2401 142.79 51.8001Z" fill="white"/>
<path d="M131.056 51.8241V56.0001H129.964V47.6001H131.056V51.2721H136.084V47.6001H137.176V56.0001H136.084V51.8241H131.056Z" fill="white"/>
<path d="M125.527 54.4521L125.887 54.7761C125.783 54.8961 125.631 55.0361 125.431 55.1961C125.231 55.3561 124.979 55.5081 124.675 55.6521C124.379 55.7881 124.027 55.9041 123.619 56.0001C123.219 56.0961 122.763 56.1441 122.251 56.1441C121.443 56.1441 120.747 56.0201 120.163 55.7721C119.579 55.5161 119.099 55.1841 118.723 54.7761C118.347 54.3601 118.067 53.8881 117.883 53.3601C117.707 52.8241 117.619 52.2761 117.619 51.7161C117.619 51.0681 117.731 50.4841 117.955 49.9641C118.179 49.4361 118.495 48.9881 118.903 48.6201C119.311 48.2441 119.799 47.9561 120.367 47.7561C120.943 47.5561 121.579 47.4561 122.275 47.4561C122.755 47.4561 123.183 47.5041 123.559 47.6001C123.935 47.6961 124.263 47.8281 124.543 47.9961C124.823 48.1641 125.055 48.3641 125.239 48.5961C125.431 48.8281 125.587 49.0801 125.707 49.3521H124.819C124.763 49.1841 124.663 49.0201 124.519 48.8601C124.383 48.6921 124.203 48.5441 123.979 48.4161C123.763 48.2881 123.511 48.1841 123.223 48.1041C122.943 48.0241 122.631 47.9841 122.287 47.9841C121.783 47.9841 121.315 48.0761 120.883 48.2601C120.459 48.4441 120.091 48.7001 119.779 49.0281C119.467 49.3561 119.223 49.7481 119.047 50.2041C118.879 50.6521 118.795 51.1481 118.795 51.6921C118.795 52.2041 118.875 52.6961 119.035 53.1681C119.203 53.6401 119.447 54.0561 119.767 54.4161C120.087 54.7761 120.487 55.0641 120.967 55.2801C121.447 55.4961 121.999 55.6041 122.623 55.6041C123.743 55.6041 124.711 55.2201 125.527 54.4521Z" fill="white"/>
<path d="M107.315 47.6001H108.551L110.999 52.0281H111.047L113.615 47.6001H114.263L111.311 52.7121V56.0001H110.219V52.8201L107.315 47.6001Z" fill="white"/>
<path d="M97.499 53.8761H98.315C98.323 54.0121 98.355 54.1801 98.411 54.3801C98.467 54.5721 98.575 54.7601 98.735 54.9441C98.895 55.1281 99.127 55.2881 99.431 55.4241C99.735 55.5521 100.139 55.6161 100.643 55.6161C101.275 55.6161 101.779 55.4961 102.155 55.2561C102.539 55.0161 102.731 54.6361 102.731 54.1161C102.731 53.7001 102.611 53.3681 102.371 53.1201C102.131 52.8721 101.827 52.6641 101.459 52.4961C101.099 52.3201 100.707 52.1641 100.283 52.0281C99.859 51.8921 99.463 51.7281 99.095 51.5361C98.735 51.3441 98.435 51.1041 98.195 50.8161C97.955 50.5281 97.835 50.1481 97.835 49.6761C97.835 49.3161 97.907 48.9961 98.051 48.7161C98.203 48.4361 98.403 48.2041 98.651 48.0201C98.907 47.8361 99.199 47.6961 99.527 47.6001C99.863 47.5041 100.215 47.4561 100.583 47.4561C100.935 47.4561 101.271 47.5001 101.591 47.5881C101.919 47.6681 102.211 47.7921 102.467 47.9601C102.723 48.1201 102.935 48.3201 103.103 48.5601C103.271 48.7921 103.379 49.0561 103.427 49.3521H102.611C102.547 48.8801 102.331 48.5361 101.963 48.3201C101.603 48.0961 101.163 47.9841 100.643 47.9841C100.331 47.9841 100.055 48.0241 99.815 48.1041C99.575 48.1761 99.371 48.2761 99.203 48.4041C99.043 48.5241 98.919 48.6681 98.831 48.8361C98.751 49.0041 98.711 49.1841 98.711 49.3761C98.711 49.7201 98.835 49.9961 99.083 50.2041C99.331 50.4121 99.639 50.5961 100.007 50.7561C100.383 50.9161 100.787 51.0681 101.219 51.2121C101.659 51.3561 102.063 51.5361 102.431 51.7521C102.807 51.9601 103.119 52.2241 103.367 52.5441C103.615 52.8561 103.739 53.2601 103.739 53.7561C103.739 54.1161 103.667 54.4441 103.523 54.7401C103.379 55.0361 103.175 55.2881 102.911 55.4961C102.647 55.7041 102.327 55.8641 101.951 55.9761C101.583 56.0881 101.167 56.1441 100.703 56.1441C100.247 56.1441 99.827 56.0921 99.443 55.9881C99.059 55.8761 98.723 55.7241 98.435 55.5321C98.155 55.3321 97.931 55.0921 97.763 54.8121C97.603 54.5321 97.515 54.2201 97.499 53.8761Z" fill="white"/>
<path d="M89.8273 52.4961V56.0001H88.7354V47.6001H91.5434C92.0074 47.6001 92.4113 47.6681 92.7553 47.8041C93.0993 47.9401 93.3834 48.1241 93.6074 48.3561C93.8394 48.5801 94.0114 48.8481 94.1234 49.1601C94.2354 49.4641 94.2914 49.7841 94.2914 50.1201C94.2914 50.4721 94.2273 50.8041 94.0993 51.1161C93.9713 51.4201 93.7794 51.6921 93.5234 51.9321C93.2754 52.1641 92.9633 52.3481 92.5873 52.4841C92.2113 52.6201 91.7794 52.6881 91.2914 52.6881C91.0034 52.6881 90.7394 52.6721 90.4994 52.6401C90.2594 52.6001 90.0353 52.5521 89.8273 52.4961ZM89.8273 48.1281V52.0041C89.9953 52.0681 90.1833 52.1121 90.3913 52.1361C90.5993 52.1521 90.8273 52.1601 91.0753 52.1601C91.4353 52.1601 91.7434 52.1001 91.9994 51.9801C92.2554 51.8601 92.4674 51.7041 92.6354 51.5121C92.8034 51.3201 92.9233 51.1081 92.9953 50.8761C93.0753 50.6361 93.1153 50.4001 93.1153 50.1681C93.1153 49.9281 93.0714 49.6881 92.9834 49.4481C92.9034 49.2001 92.7794 48.9801 92.6114 48.7881C92.4434 48.5881 92.2313 48.4281 91.9753 48.3081C91.7193 48.1881 91.4233 48.1281 91.0873 48.1281H89.8273Z" fill="white"/>
<path d="M72.5215 56.0001V47.6001H73.6135V55.3401H77.9455V56.0001H72.5215Z" fill="white"/>
<path d="M66.0004 53.5281H61.8604L60.8044 56.0001H60.2524L63.8044 47.6001H64.4044L68.3164 56.0001H67.1524L66.0004 53.5281ZM65.7484 52.9881L63.8644 48.9441H63.8164L62.0884 52.9881H65.7484Z" fill="white"/>
<path d="M56.8948 54.4521L57.2548 54.7761C57.1508 54.8961 56.9988 55.0361 56.7988 55.1961C56.5988 55.3561 56.3468 55.5081 56.0428 55.6521C55.7468 55.7881 55.3948 55.9041 54.9868 56.0001C54.5868 56.0961 54.1308 56.1441 53.6188 56.1441C52.8108 56.1441 52.1148 56.0201 51.5308 55.7721C50.9468 55.5161 50.4668 55.1841 50.0908 54.7761C49.7148 54.3601 49.4348 53.8881 49.2508 53.3601C49.0748 52.8241 48.9868 52.2761 48.9868 51.7161C48.9868 51.0681 49.0988 50.4841 49.3228 49.9641C49.5468 49.4361 49.8628 48.9881 50.2708 48.6201C50.6788 48.2441 51.1668 47.9561 51.7348 47.7561C52.3108 47.5561 52.9468 47.4561 53.6428 47.4561C54.1228 47.4561 54.5508 47.5041 54.9268 47.6001C55.3028 47.6961 55.6308 47.8281 55.9108 47.9961C56.1908 48.1641 56.4228 48.3641 56.6068 48.5961C56.7988 48.8281 56.9548 49.0801 57.0748 49.3521H56.1868C56.1308 49.1841 56.0308 49.0201 55.8868 48.8601C55.7508 48.6921 55.5708 48.5441 55.3468 48.4161C55.1308 48.2881 54.8788 48.1841 54.5908 48.1041C54.3108 48.0241 53.9988 47.9841 53.6548 47.9841C53.1508 47.9841 52.6828 48.0761 52.2508 48.2601C51.8268 48.4441 51.4588 48.7001 51.1468 49.0281C50.8348 49.3561 50.5908 49.7481 50.4148 50.2041C50.2468 50.6521 50.1628 51.1481 50.1628 51.6921C50.1628 52.2041 50.2428 52.6961 50.4028 53.1681C50.5708 53.6401 50.8148 54.0561 51.1348 54.4161C51.4548 54.7761 51.8548 55.0641 52.3348 55.2801C52.8148 55.4961 53.3668 55.6041 53.9908 55.6041C55.1108 55.6041 56.0788 55.2201 56.8948 54.4521Z" fill="white"/>
<path d="M42.9731 47.6001H44.0651V56.0001H42.9731V47.6001Z" fill="white"/>
<path d="M36.6659 47.6001H37.2179V56.1441H37.1579L30.4979 49.5801H30.4499V56.0001H29.8979V47.4561H29.9579L36.6179 54.0201H36.6659V47.6001Z" fill="white"/>
<path d="M23.0444 47.6001H24.1364V56.0001H23.0444V47.6001Z" fill="white"/>
<path d="M12.9458 56.0001V47.6001H14.0378V55.3401H18.3698V56.0001H12.9458Z" fill="white"/>
<path d="M8.5081 54.4521L8.8681 54.7761C8.7641 54.8961 8.6121 55.0361 8.4121 55.1961C8.2121 55.3561 7.9601 55.5081 7.6561 55.6521C7.3601 55.7881 7.0081 55.9041 6.6001 56.0001C6.2001 56.0961 5.7441 56.1441 5.2321 56.1441C4.4241 56.1441 3.7281 56.0201 3.1441 55.7721C2.5601 55.5161 2.0801 55.1841 1.7041 54.7761C1.3281 54.3601 1.0481 53.8881 0.864098 53.3601C0.688098 52.8241 0.600098 52.2761 0.600098 51.7161C0.600098 51.0681 0.712098 50.4841 0.936098 49.9641C1.1601 49.4361 1.4761 48.9881 1.8841 48.6201C2.2921 48.2441 2.7801 47.9561 3.3481 47.7561C3.9241 47.5561 4.5601 47.4561 5.2561 47.4561C5.7361 47.4561 6.1641 47.5041 6.5401 47.6001C6.9161 47.6961 7.2441 47.8281 7.5241 47.9961C7.8041 48.1641 8.0361 48.3641 8.2201 48.5961C8.4121 48.8281 8.5681 49.0801 8.6881 49.3521H7.8001C7.7441 49.1841 7.6441 49.0201 7.5001 48.8601C7.3641 48.6921 7.1841 48.5441 6.9601 48.4161C6.7441 48.2881 6.4921 48.1841 6.2041 48.1041C5.9241 48.0241 5.6121 47.9841 5.2681 47.9841C4.7641 47.9841 4.2961 48.0761 3.8641 48.2601C3.4401 48.4441 3.0721 48.7001 2.7601 49.0281C2.4481 49.3561 2.2041 49.7481 2.0281 50.2041C1.8601 50.6521 1.7761 51.1481 1.7761 51.6921C1.7761 52.2041 1.8561 52.6961 2.0161 53.1681C2.1841 53.6401 2.4281 54.0561 2.7481 54.4161C3.0681 54.7761 3.4681 55.0641 3.9481 55.2801C4.4281 55.4961 4.9801 55.6041 5.6041 55.6041C6.7241 55.6041 7.6921 55.2201 8.5081 54.4521Z" fill="white"/>
</svg>
